<?xml version="1.0" encoding="UTF-8" standalone="no"?>
<!-- Created with Inkscape (http://www.inkscape.org/) -->

<svg
   width="1920mm"
   height="1080mm"
   viewBox="0 0 1920 1080"
   version="1.1"
   id="svg1"
   inkscape:version="1.4.3 (0d15f75, 2025-12-25)"
   sodipodi:docname="3.svg"
   xml:space="preserve"
   xmlns:inkscape="http://www.inkscape.org/namespaces/inkscape"
   xmlns:sodipodi="http://sodipodi.sourceforge.net/DTD/sodipodi-0.dtd"
   xmlns="http://www.w3.org/2000/svg"
   xmlns:svg="http://www.w3.org/2000/svg"><sodipodi:namedview
     id="namedview1"
     pagecolor="#505050"
     bordercolor="#eeeeee"
     borderopacity="1"
     inkscape:showpageshadow="0"
     inkscape:pageopacity="0"
     inkscape:pagecheckerboard="0"
     inkscape:deskcolor="#505050"
     inkscape:document-units="mm"
     showgrid="true"
     inkscape:zoom="4"
     inkscape:cx="2600.5"
     inkscape:cy="3596.125"
     inkscape:window-width="1920"
     inkscape:window-height="1057"
     inkscape:window-x="-8"
     inkscape:window-y="-8"
     inkscape:window-maximized="1"
     inkscape:current-layer="layer3"
     showguides="false"><inkscape:grid
       id="grid1"
       units="mm"
       originx="0"
       originy="0"
       spacingx="1"
       spacingy="1"
       empcolor="#0099e5"
       empopacity="0.30196078"
       color="#0099e5"
       opacity="0.14901961"
       empspacing="5"
       enabled="true"
       visible="true" /></sodipodi:namedview><defs
     id="defs1" /><g
     inkscape:label="Layer 1"
     inkscape:groupmode="layer"
     id="layer1"><path
       id="rect3-8-1-7-5"
       style="fill:#8c8c8c;fill-opacity:1;stroke-width:80.4608"
       d="m 1406.9998,965.99996 c 7.1799,1.1e-4 13.0003,-5.82037 13.0002,-13.00024 C 1419.9999,945.82005 1414.1795,940 1406.9998,940 l -738.99988,0 v 25.99996 z"
       inkscape:label="gray"
       sodipodi:nodetypes="cssccc" /><path
       id="path5"
       style="fill:#f3f3f3;fill-opacity:1;fill-rule:evenodd;stroke-width:0.264583"
       inkscape:label="dots-white"
       d="M 900.99978 942.9998 C 895.47678 942.99985 890.99968 947.47725 890.99988 953.00023 C 890.99998 958.523 895.47698 963.00008 900.99978 963.00013 C 906.52258 963.00008 910.99969 958.523 910.99969 953.00023 C 910.99999 947.47725 906.52278 942.99985 900.99978 942.9998 z M 1406.9999 942.9998 C 1401.4769 942.99985 1396.9998 947.47725 1397 953.00023 C 1397.0001 958.523 1401.4771 963.00008 1406.9999 963.00013 C 1412.5229 963.00035 1417.0002 958.52319 1417.0003 953.00023 C 1417.0005 947.47706 1412.5231 942.99958 1406.9999 942.9998 z " /><g
       inkscape:groupmode="layer"
       id="layer3"
       inkscape:label="line-color"
       style="fill:#0ed145;fill-opacity:1"><path
         id="rect3-8-1-7-4-5"
         style="fill:#0ed145;fill-opacity:1;stroke-width:80.299"
         d="m 393.99981,939.99999 c -7.17971,1.1e-4 -12.99991,5.82052 -12.99981,13.00024 10e-5,7.17951 5.8203,12.99972 12.99981,12.99972 l 274.00011,0 v -25.99996 z"
         inkscape:label="line-segment-3-color"
         sodipodi:nodetypes="cssccc" /></g><path
       style="fill:#ffffff;fill-opacity:1;fill-rule:evenodd;stroke-width:0.264583"
       d="m 393.99972,942.9998 c -5.52277,5e-5 -9.99985,4.47714 -9.9999,9.99991 -2.3e-4,5.52297 4.47693,10.00037 9.9999,10.00042 5.52298,-5e-5 10.00014,-4.47744 9.99991,-10.00042 -5e-5,-5.52278 -4.47713,-9.99986 -9.99991,-9.99991 z"
       id="path4"
       inkscape:label="line-dots" /><path
       sodipodi:type="star"
       style="fill:#ffffff;fill-opacity:1;stroke-width:1"
       id="path2-7"
       inkscape:flatsided="true"
       sodipodi:sides="3"
       sodipodi:cx="165"
       sodipodi:cy="953"
       sodipodi:r1="5"
       sodipodi:r2="2.5"
       sodipodi:arg1="0"
       sodipodi:arg2="1.0471976"
       inkscape:rounded="0"
       inkscape:randomized="0"
       d="m 170,953 -7.5,4.33013 v -8.66026 z"
       inkscape:transform-center-x="7.6666436"
       transform="matrix(-6.133333,0,0,-5.0806879,1667.6666,5794.8952)"
       inkscape:transform-center-y="3.5758295e-05"
       inkscape:label="arrow-border" /><path
       sodipodi:type="star"
       style="fill:#0ed145;fill-opacity:1;stroke-width:1"
       id="path2-8-1"
       inkscape:flatsided="true"
       sodipodi:sides="3"
       sodipodi:cx="165"
       sodipodi:cy="953"
       sodipodi:r1="5"
       sodipodi:r2="2.5"
       sodipodi:arg1="0"
       sodipodi:arg2="1.0471976"
       inkscape:rounded="0"
       inkscape:randomized="0"
       d="m 170,953 -7.5,4.33013 v -8.66026 z"
       inkscape:transform-center-x="6.0000377"
       transform="matrix(-4.7999999,0,0,-3.9259817,1447.9999,4694.4605)"
       inkscape:transform-center-y="4.9443308e-05"
       inkscape:label="arrow-color" /></g></svg>
