<?xml version="1.0" encoding="UTF-8" standalone="no"?>
<svg
   width="151.4"
   height="89.7"
   viewBox="0 0 1514 897"
   version="1.1"
   id="svg2"
   sodipodi:docname="U10.svg"
   inkscape:export-filename="Berlin_transit_icons_-_U10.png"
   inkscape:export-xdpi="2434.8745"
   inkscape:export-ydpi="2434.8745"
   inkscape:version="1.4.3 (0d15f75, 2025-12-25)"
   xmlns:inkscape="http://www.inkscape.org/namespaces/inkscape"
   xmlns:sodipodi="http://sodipodi.sourceforge.net/DTD/sodipodi-0.dtd"
   xmlns="http://www.w3.org/2000/svg"
   xmlns:svg="http://www.w3.org/2000/svg">
  <defs
     id="defs2" />
  <sodipodi:namedview
     id="namedview2"
     pagecolor="#505050"
     bordercolor="#eeeeee"
     borderopacity="1"
     inkscape:showpageshadow="0"
     inkscape:pageopacity="0"
     inkscape:pagecheckerboard="0"
     inkscape:deskcolor="#505050"
     inkscape:zoom="9.5317729"
     inkscape:cx="75.79912"
     inkscape:cy="44.849998"
     inkscape:window-width="1920"
     inkscape:window-height="1057"
     inkscape:window-x="-8"
     inkscape:window-y="-8"
     inkscape:window-maximized="1"
     inkscape:current-layer="svg2" />
  <title
     id="title1">Berlin-Brandenburg transit icons - U-Bahn Linie U10</title>
  <path
     fill="#808080"
     d="M0,0h1514v897H0z"
     id="path1"
     style="fill:#2c2c2c;fill-opacity:1" />
  <path
     fill="#fff"
     d="M556,535q0 60-16 103t-44.5 70.5t-68 40t-86.5 12.5q-48 0-87.5-12.5t-68.5-40t-45-70.5t-16-103v-382h116v345q0 78 22 123.5t79 45.5q56 0 77-45.5t21-123.5v-345h117v382zM909,754h-116v-470l-76 79l-55-82l151-128h96v601zM1388,449q0 155-48 233.5t-142 78.5q-93 0-140.5-78.5t-47.5-233.5q0-151 49.5-228t145.5-77q89 0 136 76.5t47 228.5zM1275,456q0-118-17-173t-59-55q-24 0-39 19t-23 51t-11 74t-3 88q0 115 20 165.5t54 50.5q41 0 59.5-54t18.5-166z"
     id="path2"
     style="fill:#f3f3f3;fill-opacity:1" />
</svg>
