<?xml version="1.0" encoding="UTF-8" standalone="no"?>
<svg
   width="151.4"
   height="89.7"
   viewBox="0 0 1514 897"
   version="1.1"
   id="svg2"
   sodipodi:docname="U11.svg"
   inkscape:version="1.4.3 (0d15f75, 2025-12-25)"
   xmlns:inkscape="http://www.inkscape.org/namespaces/inkscape"
   xmlns:sodipodi="http://sodipodi.sourceforge.net/DTD/sodipodi-0.dtd"
   xmlns="http://www.w3.org/2000/svg"
   xmlns:svg="http://www.w3.org/2000/svg">
  <defs
     id="defs2" />
  <sodipodi:namedview
     id="namedview2"
     pagecolor="#505050"
     bordercolor="#eeeeee"
     borderopacity="1"
     inkscape:showpageshadow="0"
     inkscape:pageopacity="0"
     inkscape:pagecheckerboard="0"
     inkscape:deskcolor="#505050"
     inkscape:zoom="9.5317729"
     inkscape:cx="75.694208"
     inkscape:cy="44.849998"
     inkscape:window-width="1920"
     inkscape:window-height="1057"
     inkscape:window-x="-8"
     inkscape:window-y="-8"
     inkscape:window-maximized="1"
     inkscape:current-layer="svg2" />
  <title
     id="title1">Berlin-Brandenburg transit icons - U-Bahn Linie U11</title>
  <path
     fill="#808080"
     d="M0,0h1514v897H0z"
     id="path1"
     style="fill:#2c2c2c;fill-opacity:1" />
  <path
     fill="#fff"
     d="M581,535q0 60-16 103t-44.5 70.5t-68 40t-87.5 12.5q-47 0-87-12.5t-68.5-40t-44.5-70.5t-16-103v-382h116v345q0 78 21.5 123.5t78.5 45.5q56 0 77-45.5t21-123.5v-345h118v382zM933,754h-115v-470l-76 79l-56-82l152-128h95v601zM1287,754h-115v-470l-77 79l-55-82l153-128h94v601z"
     id="path2"
     style="fill:#f3f3f3;fill-opacity:1" />
</svg>
