<?xml version="1.0" encoding="UTF-8" standalone="no"?>
<svg
   width="151.4"
   height="89.7"
   viewBox="0 0 1514 897"
   version="1.1"
   id="svg2"
   sodipodi:docname="U13.svg"
   inkscape:version="1.4.3 (0d15f75, 2025-12-25)"
   xmlns:inkscape="http://www.inkscape.org/namespaces/inkscape"
   xmlns:sodipodi="http://sodipodi.sourceforge.net/DTD/sodipodi-0.dtd"
   xmlns="http://www.w3.org/2000/svg"
   xmlns:svg="http://www.w3.org/2000/svg">
  <defs
     id="defs2" />
  <sodipodi:namedview
     id="namedview2"
     pagecolor="#505050"
     bordercolor="#eeeeee"
     borderopacity="1"
     inkscape:showpageshadow="0"
     inkscape:pageopacity="0"
     inkscape:pagecheckerboard="0"
     inkscape:deskcolor="#505050"
     inkscape:zoom="9.5317729"
     inkscape:cx="75.694208"
     inkscape:cy="44.849998"
     inkscape:window-width="1920"
     inkscape:window-height="1057"
     inkscape:window-x="-8"
     inkscape:window-y="-8"
     inkscape:window-maximized="1"
     inkscape:current-layer="svg2" />
  <title
     id="title1">Berlin-Brandenburg transit icons - U-Bahn Linie U13</title>
  <path
     fill="#16683d"
     d="M0,0h1514v897H0z"
     id="path1"
     style="fill:#2c2c2c;fill-opacity:1" />
  <path
     fill="#FFF"
     d="M561,535v-382h-118v345c0 104-23 169-98 169c-76 0-100-65-100-169v-345h-116v382c0 161 90 226 216 226c127 0 216-65 216-226zM914,754v-601h-96l-151 128l55 82l76-79v470h116zM1373,573c0-72-48-131-120-137c73-19 111-67 111-141c0-77-50-151-188-151c-50 0-96 9-144 25l8 89c31-17 74-30 117-30c55 0 91 33 91 76c0 60-45 97-129 97h-24v85h42c77 0 118 29 118 86c0 55-45 95-112 95 c-37 0-71-7-121-29l-4 96c35 17 87 26 139 26c123 0 216-73 216-187z"
     id="path2"
     style="fill:#f3f3f3;fill-opacity:1" />
</svg>
