<?xml version="1.0" encoding="UTF-8" standalone="no"?>
<!-- Created with Inkscape (http://www.inkscape.org/) -->

<svg
   width="1920mm"
   height="1080mm"
   viewBox="0 0 1920 1080"
   version="1.1"
   id="svg1"
   inkscape:version="1.4.3 (0d15f75, 2025-12-25)"
   sodipodi:docname="midpoint.svg"
   xmlns:inkscape="http://www.inkscape.org/namespaces/inkscape"
   xmlns:sodipodi="http://sodipodi.sourceforge.net/DTD/sodipodi-0.dtd"
   xmlns="http://www.w3.org/2000/svg"
   xmlns:svg="http://www.w3.org/2000/svg">
  <sodipodi:namedview
     id="namedview1"
     pagecolor="#505050"
     bordercolor="#eeeeee"
     borderopacity="1"
     inkscape:showpageshadow="0"
     inkscape:pageopacity="0"
     inkscape:pagecheckerboard="0"
     inkscape:deskcolor="#505050"
     inkscape:document-units="mm"
     showgrid="true"
     inkscape:zoom="1.0771772"
     inkscape:cx="5734.4326"
     inkscape:cy="3585.761"
     inkscape:window-width="1920"
     inkscape:window-height="1057"
     inkscape:window-x="-8"
     inkscape:window-y="-8"
     inkscape:window-maximized="1"
     inkscape:current-layer="layer2"
     showguides="false">
    <inkscape:grid
       id="grid1"
       units="mm"
       originx="0"
       originy="0"
       spacingx="1"
       spacingy="1"
       empcolor="#0099e5"
       empopacity="0.30196078"
       color="#0099e5"
       opacity="0.14901961"
       empspacing="5"
       enabled="true"
       visible="true" />
  </sodipodi:namedview>
  <defs
     id="defs1" />
  <g
     inkscape:label="Layer 1"
     inkscape:groupmode="layer"
     id="layer1">
    <path
       id="rect3-8-1-1"
       style="fill:#8c8c8c;fill-opacity:1;stroke-width:60.9753"
       d="M 153.9999 939.99999 A 13.000001 13 0 0 0 141.00018 953.00023 A 13.000001 13 0 0 0 153.9999 965.99995 L 194.00004 965.99995 L 194.00004 939.99999 L 153.9999 939.99999 z M 203.99995 939.99999 L 203.99995 965.99995 L 216.00025 965.99995 L 216.00025 939.99999 L 203.99995 939.99999 z M 226.00016 939.99999 L 226.00016 965.99995 L 237.99994 965.99995 L 237.99994 939.99999 L 226.00016 939.99999 z M 247.99985 939.99999 L 247.99985 965.99995 L 390.99991 965.99995 L 390.99991 939.99999 L 247.99985 939.99999 z "
       inkscape:label="gray" />
    <path
       id="path3-9"
       style="fill:#f3f3f3;fill-opacity:1;fill-rule:evenodd;stroke-width:0.264583"
       d="M 153.9999 942.9998 A 9.999999 9.999999 0 0 0 144 952.99971 A 9.999999 9.999999 0 0 0 153.9999 963.00013 A 9.999999 9.999999 0 0 0 163.99981 952.99971 A 9.999999 9.999999 0 0 0 153.9999 942.9998 z M 287.99999 942.9998 A 9.999999 9.999999 0 0 0 278.00009 953.00023 A 9.999999 9.999999 0 0 0 287.99999 963.00013 A 9.999999 9.999999 0 0 0 297.9999 953.00023 A 9.999999 9.999999 0 0 0 287.99999 942.9998 z M 370.00015 942.9998 A 9.999999 9.999999 0 0 0 360.00025 953.00023 A 9.999999 9.999999 0 0 0 370.00015 963.00013 A 9.999999 9.999999 0 0 0 380.00006 953.00023 A 9.999999 9.999999 0 0 0 370.00015 942.9998 z "
       inkscape:label="dots-white" />
    <g
       inkscape:groupmode="layer"
       id="layer2"
       inkscape:label="line-color"
       style="fill:#0ed145;fill-opacity:1">
      <path
         id="path1-5"
         style="fill:#0ed145;fill-opacity:1;fill-rule:evenodd;stroke-width:0.171979"
         d="M 1584 939.99999 L 1584 965.99995 L 1596.0003 965.99995 L 1596.0003 939.99999 L 1584 939.99999 z M 1606.0002 939.99999 L 1606.0002 965.99995 L 1645.9998 965.99995 A 13.000001 13 0 0 0 1659 953.00023 A 13.000001 13 0 0 0 1645.9998 939.99999 L 1606.0002 939.99999 z "
         inkscape:label="line-segment-last-color" />
      <path
         id="rect3-8-1-7"
         style="fill:#0ed145;fill-opacity:1;stroke-width:32.249"
         d="M 1512.0002 939.99999 L 1512.0002 965.99995 L 1551.9998 965.99995 L 1551.9998 939.99999 L 1512.0002 939.99999 z M 1561.9997 939.99999 L 1561.9997 965.99995 L 1574 965.99995 L 1574 939.99999 L 1561.9997 939.99999 z "
         inkscape:label="line-segment-18-color" />
      <path
         id="rect3-8-1-1-1-2-9-2-0-4"
         style="fill:#0ed145;fill-opacity:1;stroke-width:46.1735"
         d="M -1430.0001 939.99999 L -1430.0001 965.99995 L -1511.9728 965.99995 L -1512.0002 965.99995 A 13.000001 13 0 0 1 -1524.9999 953.00023 A 13.000001 13 0 0 1 -1512.0002 939.99999 L -1430.0001 939.99999 z "
         transform="scale(-1,1)"
         inkscape:label="line-segment-17-color" />
      <path
         id="rect3-8-1-1-1-1-0-0-3"
         style="fill:#0ed145;fill-opacity:1;stroke-width:45.8911"
         d="M -1348.9998 939.99999 L -1348.9998 965.99995 L -1429.9727 965.99995 L -1430.0001 965.99995 A 13.000001 13 0 0 1 -1442.9998 953.00023 A 13.000001 13 0 0 1 -1430.0001 939.99999 L -1348.9998 939.99999 z "
         transform="scale(-1,1)"
         inkscape:label="line-segment-16-color" />
      <path
         id="rect3-8-1-1-1-2-6-9-9"
         style="fill:#0ed145;fill-opacity:1;stroke-width:46.1735"
         d="M -1267.0002 939.99999 L -1267.0002 965.99995 L -1348.973 965.99995 L -1348.9998 965.99995 A 13.000001 13 0 0 1 -1362.0001 953.00023 A 13.000001 13 0 0 1 -1348.9998 939.99999 L -1267.0002 939.99999 z "
         transform="scale(-1,1)"
         inkscape:label="line-segment-15-color" />
      <path
         id="rect3-8-1-1-1-2-9-2-0"
         style="fill:#0ed145;fill-opacity:1;stroke-width:45.8911"
         d="M -1186 939.99999 L -1186 965.99995 L -1266.9728 965.99995 L -1267.0002 965.99995 A 13.000001 13 0 0 1 -1279.9999 953.00023 A 13.000001 13 0 0 1 -1267.0002 939.99999 L -1186 939.99999 z "
         transform="scale(-1,1)"
         inkscape:label="line-segment-14-color" />
      <path
         id="rect3-8-1-1-1-1-0-0"
         style="fill:#0ed145;fill-opacity:1;stroke-width:46.1735"
         d="M -1103.9998 939.99999 L -1103.9998 965.99995 L -1185.9726 965.99995 L -1186 965.99995 A 13.000001 13 0 0 1 -1199.0002 953.00023 A 13.000001 13 0 0 1 -1186 939.99999 L -1103.9998 939.99999 z "
         transform="scale(-1,1)"
         inkscape:label="line-segment-13-color" />
      <path
         id="rect3-8-1-1-1-2-6-9"
         style="fill:#0ed145;fill-opacity:1;stroke-width:46.1735"
         d="M -1022.0002 939.99999 L -1022.0002 965.99995 L -1103.9729 965.99995 L -1103.9998 965.99995 A 13.000001 13 0 0 1 -1117 953.00023 A 13.000001 13 0 0 1 -1103.9998 939.99999 L -1022.0002 939.99999 z "
         transform="scale(-1,1)"
         inkscape:label="line-segment-12-color" />
      <path
         id="rect3-8-1-1-1-28-0"
         style="fill:#0ed145;fill-opacity:1;stroke-width:45.8911"
         d="M -940.99993 939.99999 L -940.99993 965.99995 L -1021.9728 965.99995 L -1022.0002 965.99995 A 13.000001 13 0 0 1 -1034.9999 953.00023 A 13.000001 13 0 0 1 -1022.0002 939.99999 L -940.99993 939.99999 z "
         transform="scale(-1,1)"
         inkscape:label="line-segment-11-color" />
      <path
         id="rect3-8-1-1-1-2-9-2"
         style="fill:#0ed145;fill-opacity:1;stroke-width:46.1735"
         d="M -858.99976 939.99999 L -858.99976 965.99995 L -940.97254 965.99995 L -940.99993 965.99995 A 13.000001 13 0 0 1 -954.00017 953.00023 A 13.000001 13 0 0 1 -940.99993 939.99999 L -858.99976 939.99999 z "
         transform="scale(-1,1)"
         inkscape:label="line-segment-10-color" />
      <path
         id="rect3-8-1-1-1-1-0"
         style="fill:#0ed145;fill-opacity:1;stroke-width:45.8911"
         d="M -778.00006 939.99999 L -778.00006 965.99995 L -858.97289 965.99995 L -858.99976 965.99995 A 13.000001 13 0 0 1 -872 953.00023 A 13.000001 13 0 0 1 -858.99976 939.99999 L -778.00006 939.99999 z "
         transform="scale(-1,1)"
         inkscape:label="line-segment-9-color" />
      <path
         id="rect3-8-1-1-1-2-6"
         style="fill:#0ed145;fill-opacity:1;stroke-width:46.1735"
         d="M -695.99989 939.99999 L -695.99989 965.99995 L -777.97267 965.99995 L -778.00006 965.99995 A 13.000001 13 0 0 1 -790.99978 953.00023 A 13.000001 13 0 0 1 -778.00006 939.99999 L -695.99989 939.99999 z "
         transform="scale(-1,1)"
         inkscape:label="line-segment-8-color" />
      <path
         id="rect3-8-1-1-1-28"
         style="fill:#0ed145;fill-opacity:1;stroke-width:46.1735"
         d="M -614.00025 939.99999 L -614.00025 965.99995 L -695.97251 965.99995 L -695.99989 965.99995 A 13.000001 13 0 0 1 -709.00013 953.00023 A 13.000001 13 0 0 1 -695.99989 939.99999 L -614.00025 939.99999 z "
         transform="scale(-1,1)"
         inkscape:label="line-segment-7-color" />
      <path
         id="rect3-8-1-1-1-2-9"
         style="fill:#0ed145;fill-opacity:1;stroke-width:45.8911"
         d="M -533.00002 939.99999 L -533.00002 965.99995 L -613.97286 965.99995 L -614.00025 965.99995 A 13.000001 13 0 0 1 -626.99997 953.00023 A 13.000001 13 0 0 1 -614.00025 939.99999 L -533.00002 939.99999 z "
         transform="scale(-1,1)"
         inkscape:label="line-segment-6-color" />
      <path
         id="rect3-8-1-1-1-1"
         style="fill:#0ed145;fill-opacity:1;stroke-width:46.1735"
         d="M -450.99986 939.99999 L -450.99986 965.99995 L -532.97264 965.99995 L -533.00002 965.99995 A 13.000001 13 0 0 1 -545.99975 953.00023 A 13.000001 13 0 0 1 -533.00002 939.99999 L -450.99986 939.99999 z "
         transform="scale(-1,1)"
         inkscape:label="line-segment-5-color" />
      <path
         id="path1-5-8-2-1-3"
         style="fill:#0ed145;fill-opacity:1;fill-rule:evenodd;stroke-width:0.171979"
         d="M 390.99991 939.99999 L 390.99991 965.99995 L 450.97247 965.99995 L 450.99986 965.99995 A 13.000001 13 0 0 0 464.0001 953.00023 A 13.000001 13 0 0 0 450.99986 939.99999 L 390.99991 939.99999 z "
         inkscape:label="line-segment-4-color" />
    </g>
    <path
       id="path3-2"
       style="fill:#ffffff;fill-opacity:1;fill-rule:evenodd;stroke-width:0.264583"
       d="M -450.99986 -942.9998 A 9.999999 9.999999 0 0 0 -440.99996 -953.00023 A 9.999999 9.999999 0 0 0 -450.99986 -963.00013 A 9.999999 9.999999 0 0 0 -460.99977 -953.00023 A 9.999999 9.999999 0 0 0 -450.99986 -942.9998 z M -533.00002 -942.9998 A 9.999999 9.999999 0 0 0 -523.00012 -953.00023 A 9.999999 9.999999 0 0 0 -533.00002 -963.00013 A 9.999999 9.999999 0 0 0 -542.99993 -953.00023 A 9.999999 9.999999 0 0 0 -533.00002 -942.9998 z M -614.00025 -942.9998 A 9.999999 9.999999 0 0 0 -603.99983 -953.00023 A 9.999999 9.999999 0 0 0 -614.00025 -963.00013 A 9.999999 9.999999 0 0 0 -624.00015 -953.00023 A 9.999999 9.999999 0 0 0 -614.00025 -942.9998 z M -695.99989 -942.9998 A 9.999999 9.999999 0 0 0 -685.99999 -953.00023 A 9.999999 9.999999 0 0 0 -695.99989 -963.00013 A 9.999999 9.999999 0 0 0 -705.9998 -953.00023 A 9.999999 9.999999 0 0 0 -695.99989 -942.9998 z M -778.00006 -942.9998 A 9.999999 9.999999 0 0 0 -768.00015 -953.00023 A 9.999999 9.999999 0 0 0 -778.00006 -963.00013 A 9.999999 9.999999 0 0 0 -787.99996 -953.00023 A 9.999999 9.999999 0 0 0 -778.00006 -942.9998 z M -858.99976 -942.9998 A 9.999999 9.999999 0 0 0 -848.99986 -953.00023 A 9.999999 9.999999 0 0 0 -858.99976 -963.00013 A 9.999999 9.999999 0 0 0 -869.00019 -953.00023 A 9.999999 9.999999 0 0 0 -858.99976 -942.9998 z M -940.99993 -942.9998 A 9.999999 9.999999 0 0 0 -931.00002 -953.00023 A 9.999999 9.999999 0 0 0 -940.99993 -963.00013 A 9.999999 9.999999 0 0 0 -950.99983 -953.00023 A 9.999999 9.999999 0 0 0 -940.99993 -942.9998 z M -1022.0002 -942.9998 A 9.999999 9.999999 0 0 0 -1012.0002 -953.00023 A 9.999999 9.999999 0 0 0 -1022.0002 -963.00013 A 9.999999 9.999999 0 0 0 -1032.0001 -953.00023 A 9.999999 9.999999 0 0 0 -1022.0002 -942.9998 z M -1103.9998 -942.9998 A 9.999999 9.999999 0 0 0 -1093.9999 -953.00023 A 9.999999 9.999999 0 0 0 -1103.9998 -963.00013 A 9.999999 9.999999 0 0 0 -1114.0002 -953.00023 A 9.999999 9.999999 0 0 0 -1103.9998 -942.9998 z M -1186 -942.9998 A 9.999999 9.999999 0 0 0 -1176.0001 -953.00023 A 9.999999 9.999999 0 0 0 -1186 -963.00013 A 9.999999 9.999999 0 0 0 -1195.9999 -953.00023 A 9.999999 9.999999 0 0 0 -1186 -942.9998 z M -1267.0002 -942.9998 A 9.999999 9.999999 0 0 0 -1256.9998 -953.00023 A 9.999999 9.999999 0 0 0 -1267.0002 -963.00013 A 9.999999 9.999999 0 0 0 -1277.0001 -953.00023 A 9.999999 9.999999 0 0 0 -1267.0002 -942.9998 z M -1348.9998 -942.9998 A 9.999999 9.999999 0 0 0 -1338.9999 -953.00023 A 9.999999 9.999999 0 0 0 -1348.9998 -963.00013 A 9.999999 9.999999 0 0 0 -1359.0003 -953.00023 A 9.999999 9.999999 0 0 0 -1348.9998 -942.9998 z M -1430.0001 -942.9998 A 9.999999 9.999999 0 0 0 -1420.0001 -953.00023 A 9.999999 9.999999 0 0 0 -1430.0001 -963.00013 A 9.999999 9.999999 0 0 0 -1440 -953.00023 A 9.999999 9.999999 0 0 0 -1430.0001 -942.9998 z M -1512.0002 -942.9998 A 9.999999 9.999999 0 0 0 -1501.9998 -953.00023 A 9.999999 9.999999 0 0 0 -1512.0002 -963.00013 A 9.999999 9.999999 0 0 0 -1522.0001 -953.00023 A 9.999999 9.999999 0 0 0 -1512.0002 -942.9998 z M -1645.9998 -942.9998 A 9.999999 9.999999 0 0 0 -1635.9999 -953.00023 A 9.999999 9.999999 0 0 0 -1645.9998 -963.00013 A 9.999999 9.999999 0 0 0 -1656.0002 -953.00023 A 9.999999 9.999999 0 0 0 -1645.9998 -942.9998 z "
       transform="scale(-1)"
       inkscape:label="line-dots" />
    <path
       sodipodi:type="star"
       style="fill:#ffffff;fill-opacity:1;stroke-width:1"
       id="path2"
       inkscape:flatsided="true"
       sodipodi:sides="3"
       sodipodi:cx="165"
       sodipodi:cy="953"
       sodipodi:r1="5"
       sodipodi:r2="2.5"
       sodipodi:arg1="0"
       sodipodi:arg2="1.0471976"
       inkscape:rounded="0"
       inkscape:randomized="0"
       d="m 170,953 -7.5,4.33013 v -8.66026 z"
       inkscape:transform-center-x="-7.6666696"
       transform="matrix(6.133333,0,0,5.0806879,-608.66659,-3888.8955)"
       inkscape:transform-center-y="-2.761173e-05"
       inkscape:label="arrow-border" />
    <path
       sodipodi:type="star"
       style="fill:#0ed145;fill-opacity:1;stroke-width:1"
       id="path2-8"
       inkscape:flatsided="true"
       sodipodi:sides="3"
       sodipodi:cx="165"
       sodipodi:cy="953"
       sodipodi:r1="5"
       sodipodi:r2="2.5"
       sodipodi:arg1="0"
       sodipodi:arg2="1.0471976"
       inkscape:rounded="0"
       inkscape:randomized="0"
       d="m 170,953 -7.5,4.33013 v -8.66026 z"
       inkscape:transform-center-x="-5.9999937"
       transform="matrix(4.7999999,0,0,3.9259817,-388.99999,-2788.4606)"
       inkscape:transform-center-y="-4.1296744e-05"
       inkscape:label="arrow-color" />
  </g>
</svg>
