<?xml version="1.0" encoding="UTF-8" standalone="no"?>
<svg
   width="1920mm"
   height="1080mm"
   viewBox="0 0 1920 1080"
   version="1.1"
   id="svg1"
   inkscape:version="1.4.3 (0d15f75, 2025-12-25)"
   sodipodi:docname="1.svg"
   xml:space="preserve"
   xmlns:inkscape="http://www.inkscape.org/namespaces/inkscape"
   xmlns:sodipodi="http://sodipodi.sourceforge.net/DTD/sodipodi-0.dtd"
   xmlns="http://www.w3.org/2000/svg"
   xmlns:svg="http://www.w3.org/2000/svg"><sodipodi:namedview
     id="namedview1"
     pagecolor="#505050"
     bordercolor="#eeeeee"
     borderopacity="1"
     inkscape:showpageshadow="0"
     inkscape:pageopacity="0"
     inkscape:pagecheckerboard="0"
     inkscape:deskcolor="#505050"
     inkscape:document-units="mm"
     showgrid="true"
     inkscape:zoom="45.254834"
     inkscape:cx="2253.0853"
     inkscape:cy="3566.0389"
     inkscape:window-width="1920"
     inkscape:window-height="1057"
     inkscape:window-x="-8"
     inkscape:window-y="-8"
     inkscape:window-maximized="1"
     inkscape:current-layer="layer2"
     showguides="false"><inkscape:grid
       id="grid1"
       units="mm"
       originx="0"
       originy="0"
       spacingx="1"
       spacingy="1"
       empcolor="#0099e5"
       empopacity="0.30196078"
       color="#0099e5"
       opacity="0.14901961"
       empspacing="5"
       enabled="true"
       visible="true" /></sodipodi:namedview><defs
     id="defs1" /><g
     inkscape:label="Layer 1"
     inkscape:groupmode="layer"
     id="layer1"><g
       inkscape:groupmode="layer"
       id="layer2"
       inkscape:label="line-color"
       style="fill:#0ed145;fill-opacity:1"
       transform="translate(240)"><path
         id="seg6"
         style="fill:#0ed145;fill-opacity:1;stroke-width:47.8329"
         d="m 963.99999,940 v 26 H 1167 c 7.1797,0 13,-5.8203 13,-13 0,-7.1797 -5.8203,-13 -13,-13 z"
         inkscape:label="line-segment-6-color"
         sodipodi:nodetypes="ccsssc" /><path
         id="seg5"
         style="fill:#0ed145;fill-opacity:1;stroke-width:47.8329"
         d="m 761.99999,940 v 26 h 202 c 7.1797,0 13,-5.8203 13,-13 0,-7.1797 -5.8203,-13 -13,-13 z"
         inkscape:label="line-segment-5-color"
         sodipodi:nodetypes="ccsssc" /><path
         id="seg4"
         style="fill:#0ed145;fill-opacity:1;stroke-width:47.8329"
         d="m 559,940 v 26 l 202.99999,0 c 7.1797,0 13,-5.8203 13,-13 0,-7.1797 -5.8203,-13 -13,-13 z"
         inkscape:label="line-segment-4-color"
         sodipodi:nodetypes="ccsssc" /><path
         id="seg3"
         style="fill:#0ed145;fill-opacity:1;stroke-width:47.5603"
         d="m 357,939.99997 v 26 h 202 c 7.1797,0 13,-5.8203 13,-13 0,-7.1797 -5.8203,-13 -13,-13 z"
         inkscape:label="line-segment-3-color"
         sodipodi:nodetypes="ccsssc" /><path
         id="seg2"
         style="fill:#0ed145;fill-opacity:1;stroke-width:47.8329"
         d="m 154,940 v 26 h 203 c 7.1797,0 13,-5.8203 13,-13 0,-7.1797 -5.8203,-13 -13,-13 z"
         inkscape:label="line-segment-2-color"
         sodipodi:nodetypes="ccsssc" /><circle
         style="fill:#0ed145;fill-opacity:1;fill-rule:evenodd;stroke-width:0.171979"
         id="path1-1"
         cx="154"
         cy="953"
         inkscape:label="line-segment-1-color"
         r="13" /></g><path
       id="path19"
       style="fill:#ffffff;fill-opacity:1;fill-rule:evenodd;stroke-width:0.264583"
       d="m 393.99972,942.9998 c -5.52285,0 -9.9999,4.47758 -9.9999,10.00043 0,5.52285 4.47705,9.9999 9.9999,9.9999 5.52285,0 9.99991,-4.47705 9.99991,-9.9999 0,-5.52285 -4.47706,-10.00043 -9.99991,-10.00043 z m 203.00028,0 c -5.52285,0 -9.99991,4.47758 -9.99991,10.00043 0,5.52285 4.47706,9.9999 9.99991,9.9999 5.52285,0 9.99991,-4.47705 9.99991,-9.9999 0,-5.52285 -4.47706,-10.00043 -9.99991,-10.00043 z m 201.99973,0 c -5.52285,0 -9.9999,4.47758 -9.9999,10.00043 0,5.52285 4.47705,9.9999 9.9999,9.9999 5.52285,0 10.00043,-4.47705 10.00043,-9.9999 0,-5.52285 -4.47758,-10.00043 -10.00043,-10.00043 z m 203.00027,0 c -5.52286,0 -9.99991,4.47758 -9.99991,10.00043 0,5.52285 4.47705,9.9999 9.99991,9.9999 5.5228,0 9.9999,-4.47705 9.9999,-9.9999 0,-5.52285 -4.4771,-10.00043 -9.9999,-10.00043 z m 202.0002,0 c -5.5228,0 -10.0003,4.47758 -10.0003,10.00043 0,5.52285 4.4775,9.9999 10.0003,9.9999 5.523,0 10,-4.47705 10,-9.9999 0,-5.52285 -4.477,-10.00043 -10,-10.00043 z m 203.0001,0 c -5.5229,0 -10.0004,4.47758 -10.0004,10.00043 0,5.52285 4.4775,9.9999 10.0004,9.9999 5.5228,0 9.9999,-4.47705 9.9999,-9.9999 0,-5.52285 -4.4771,-10.00043 -9.9999,-10.00043 z"
       inkscape:label="line-dots"
       sodipodi:nodetypes="ssssssssssssssssssssssssssssss" /></g></svg>
